
<svg version="1.0" xmlns="http://www.w3.org/2000/svg"
 width="512.000000pt" height="512.000000pt" viewBox="0 0 512.000000 512.000000"
 preserveAspectRatio="xMidYMid meet">

<g transform="translate(0.000000,512.000000) scale(0.100000,-0.100000)"
fill="#ffff" stroke="none">
<path d="M2500 4367 l0 -747 -1220 0 -1220 0 0 -1060 0 -1060 1220 0 1220 0 0
-747 0 -748 1277 1278 1278 1277 -1278 1277 -1277 1278 0 -748z m1237 -2864
l-1057 -1058 0 618 0 617 -1215 0 -1215 0 0 880 0 880 1215 0 1215 0 0 617 0
618 1057 -1058 1058 -1057 -1058 -1057z"/>
</g>
</svg>
